  0
SECTION
  2
HEADER
  9
$ANGBASE
  50
0.0
  9
$ANGDIR
  70
1
  9
$MEASUREMENT
  70
1
  0
ENDSEC
  0
SECTION
  2
TABLES
  0
TABLE
  2
LTYPE
  70
4
  0
LTYPE
  5
40F
  2
CONTINUOUS
  70
0
  3
Solid line
  72
65
  73
0
  40
0.0
  0
LTYPE
  5
410
  2
DASHDOT
 70
0
  3
Dash Dot ____ _ ____ _
 72
65
 73
4
 40
2.0
 49
1.25
 49
-0.25
 49
0.25
 49
-0.25
  0
LTYPE
  5
411
  2
DASHED
 70
0
  3
Dashed __ __ __ __ __
 72
65
 73
2
 40
0.75
 49
0.5
 49
-0.25
  0
LTYPE
  5
43B
  2
DOTTED
 70
0
  3
Dotted .  .  .  .
 72
65
 73
2
 40
0.2
 49
0.0
 49
-0.2
  0
ENDTAB
  0
TABLE
  2
STYLE
  70
4
  0
STYLE
  2
KICAD
  70
0
  40
0
  41
1
  42
1
  50
0
  71
0
  3
isocp.shx
  0
STYLE
  2
KICADB
  70
0
  40
0
  41
1
  42
1
  50
0
  71
0
  3
isocp.shx
  0
STYLE
  2
KICADI
  70
0
  40
0
  41
1
  42
1
  50
15
  71
0
  3
isocp.shx
  0
STYLE
  2
KICADBI
  70
0
  40
0
  41
1
  42
1
  50
15
  71
0
  3
isocp.shx
  0
ENDTAB
  0
TABLE
  2
LAYER
  70
1
  0
LAYER
  2
BLACK
  70
0
  62
7
  6
CONTINUOUS
  0
ENDTAB
  0
ENDSEC
  0
SECTION
  2
ENTITIES
0
LINE
8
BLACK
6
CONTINUOUS
10
55.2772
20
-94.6219
11
55.6789
21
-91.9569
0
LINE
8
BLACK
6
CONTINUOUS
10
55.6789
20
-91.9569
11
56.2392
21
-89.3207
0
LINE
8
BLACK
6
CONTINUOUS
10
56.2392
20
-89.3207
11
56.9562
21
-86.7228
0
LINE
8
BLACK
6
CONTINUOUS
10
56.9562
20
-86.7228
11
57.8273
21
-84.1723
0
LINE
8
BLACK
6
CONTINUOUS
10
57.8273
20
-84.1723
11
58.8493
21
-81.6785
0
LINE
8
BLACK
6
CONTINUOUS
10
58.8493
20
-81.6785
11
60.0187
21
-79.2504
0
LINE
8
BLACK
6
CONTINUOUS
10
60.0187
20
-79.2504
11
61.3312
21
-76.8965
0
LINE
8
BLACK
6
CONTINUOUS
10
61.3312
20
-76.8965
11
62.7821
21
-74.6252
0
LINE
8
BLACK
6
CONTINUOUS
10
62.7821
20
-74.6252
11
64.3662
21
-72.4449
0
LINE
8
BLACK
6
CONTINUOUS
10
64.3662
20
-72.4449
11
66.0779
21
-70.3631
0
LINE
8
BLACK
6
CONTINUOUS
10
66.0779
20
-70.3631
11
67.911
21
-68.3875
0
LINE
8
BLACK
6
CONTINUOUS
10
67.911
20
-68.3875
11
69.859
21
-66.525
0
LINE
8
BLACK
6
CONTINUOUS
10
69.859
20
-66.525
11
71.9149
21
-64.7824
0
LINE
8
BLACK
6
CONTINUOUS
10
71.9149
20
-64.7824
11
74.0713
21
-63.1658
0
LINE
8
BLACK
6
CONTINUOUS
10
74.0713
20
-63.1658
11
76.3206
21
-61.6811
0
LINE
8
BLACK
6
CONTINUOUS
10
76.3206
20
-61.6811
11
78.6546
21
-60.3336
0
LINE
8
BLACK
6
CONTINUOUS
10
78.6546
20
-60.3336
11
81.065
21
-59.128
0
LINE
8
BLACK
6
CONTINUOUS
10
81.065
20
-59.128
11
83.5432
21
-58.0688
0
LINE
8
BLACK
6
CONTINUOUS
10
83.5432
20
-58.0688
11
86.0803
21
-57.1597
0
LINE
8
BLACK
6
CONTINUOUS
10
86.0803
20
-57.1597
11
88.6673
21
-56.4039
0
LINE
8
BLACK
6
CONTINUOUS
10
88.6673
20
-56.4039
11
91.2948
21
-55.8042
0
LINE
8
BLACK
6
CONTINUOUS
10
91.2948
20
-55.8042
11
93.9535
21
-55.3627
0
LINE
8
BLACK
6
CONTINUOUS
10
93.9535
20
-55.3627
11
96.6338
21
-55.081
0
LINE
8
BLACK
6
CONTINUOUS
10
96.6338
20
-55.081
11
99.3262
21
-54.96
0
LINE
8
BLACK
6
CONTINUOUS
10
99.3262
20
-54.96
11
102.021
21
-55.0004
0
LINE
8
BLACK
6
CONTINUOUS
10
102.021
20
-55.0004
11
104.708
21
-55.2018
0
LINE
8
BLACK
6
CONTINUOUS
10
104.708
20
-55.2018
11
107.379
21
-55.5635
0
LINE
8
BLACK
6
CONTINUOUS
10
107.379
20
-55.5635
11
110.023
21
-56.0844
0
LINE
8
BLACK
6
CONTINUOUS
10
110.023
20
-56.0844
11
112.632
21
-56.7624
0
LINE
8
BLACK
6
CONTINUOUS
10
112.632
20
-56.7624
11
115.195
21
-57.5952
0
LINE
8
BLACK
6
CONTINUOUS
10
115.195
20
-57.5952
11
117.704
21
-58.5799
0
LINE
8
BLACK
6
CONTINUOUS
10
117.704
20
-58.5799
11
120.149
21
-59.7128
0
LINE
8
BLACK
6
CONTINUOUS
10
120.149
20
-59.7128
11
122.522
21
-60.9899
0
LINE
8
BLACK
6
CONTINUOUS
10
122.522
20
-60.9899
11
124.815
21
-62.4066
0
LINE
8
BLACK
6
CONTINUOUS
10
124.815
20
-62.4066
11
127.019
21
-63.958
0
LINE
8
BLACK
6
CONTINUOUS
10
127.019
20
-63.958
11
129.126
21
-65.6383
0
LINE
8
BLACK
6
CONTINUOUS
10
129.126
20
-65.6383
11
131.129
21
-67.4417
0
LINE
8
BLACK
6
CONTINUOUS
10
131.129
20
-67.4417
11
133.02
21
-69.3616
0
LINE
8
BLACK
6
CONTINUOUS
10
133.02
20
-69.3616
11
134.794
21
-71.3912
0
LINE
8
BLACK
6
CONTINUOUS
10
134.794
20
-71.3912
11
136.442
21
-73.5232
0
LINE
8
BLACK
6
CONTINUOUS
10
136.442
20
-73.5232
11
137.96
21
-75.75
0
LINE
8
BLACK
6
CONTINUOUS
10
137.96
20
-75.75
11
139.343
21
-78.0636
0
LINE
8
BLACK
6
CONTINUOUS
10
139.343
20
-78.0636
11
140.584
21
-80.4557
0
LINE
8
BLACK
6
CONTINUOUS
10
140.584
20
-80.4557
11
141.68
21
-82.9178
0
LINE
8
BLACK
6
CONTINUOUS
10
141.68
20
-82.9178
11
142.627
21
-85.441
0
LINE
8
BLACK
6
CONTINUOUS
10
142.627
20
-85.441
11
143.422
21
-88.0164
0
LINE
8
BLACK
6
CONTINUOUS
10
143.422
20
-88.0164
11
144.061
21
-90.6346
0
LINE
8
BLACK
6
CONTINUOUS
10
144.061
20
-90.6346
11
144.542
21
-93.2864
0
LINE
8
BLACK
6
CONTINUOUS
10
144.542
20
-93.2864
11
144.864
21
-95.9622
0
LINE
8
BLACK
6
CONTINUOUS
10
144.864
20
-95.9622
11
145.025
21
-98.6525
0
LINE
8
BLACK
6
CONTINUOUS
10
145.025
20
-98.6525
11
145.025
21
-101.348
0
LINE
8
BLACK
6
CONTINUOUS
10
145.025
20
-101.348
11
144.864
21
-104.038
0
LINE
8
BLACK
6
CONTINUOUS
10
144.864
20
-104.038
11
144.542
21
-106.714
0
LINE
8
BLACK
6
CONTINUOUS
10
144.542
20
-106.714
11
144.061
21
-109.365
0
LINE
8
BLACK
6
CONTINUOUS
10
144.061
20
-109.365
11
143.422
21
-111.984
0
LINE
8
BLACK
6
CONTINUOUS
10
143.422
20
-111.984
11
142.627
21
-114.559
0
LINE
8
BLACK
6
CONTINUOUS
10
142.627
20
-114.559
11
141.68
21
-117.082
0
LINE
8
BLACK
6
CONTINUOUS
10
141.68
20
-117.082
11
140.584
21
-119.544
0
LINE
8
BLACK
6
CONTINUOUS
10
140.584
20
-119.544
11
139.343
21
-121.936
0
LINE
8
BLACK
6
CONTINUOUS
10
139.343
20
-121.936
11
137.96
21
-124.25
0
LINE
8
BLACK
6
CONTINUOUS
10
137.96
20
-124.25
11
136.442
21
-126.477
0
LINE
8
BLACK
6
CONTINUOUS
10
136.442
20
-126.477
11
134.794
21
-128.609
0
LINE
8
BLACK
6
CONTINUOUS
10
134.794
20
-128.609
11
133.02
21
-130.638
0
LINE
8
BLACK
6
CONTINUOUS
10
133.02
20
-130.638
11
131.129
21
-132.558
0
LINE
8
BLACK
6
CONTINUOUS
10
131.129
20
-132.558
11
129.126
21
-134.362
0
LINE
8
BLACK
6
CONTINUOUS
10
129.126
20
-134.362
11
127.019
21
-136.042
0
LINE
8
BLACK
6
CONTINUOUS
10
127.019
20
-136.042
11
124.815
21
-137.593
0
LINE
8
BLACK
6
CONTINUOUS
10
124.815
20
-137.593
11
122.522
21
-139.01
0
LINE
8
BLACK
6
CONTINUOUS
10
122.522
20
-139.01
11
120.149
21
-140.287
0
LINE
8
BLACK
6
CONTINUOUS
10
120.149
20
-140.287
11
117.704
21
-141.42
0
LINE
8
BLACK
6
CONTINUOUS
10
117.704
20
-141.42
11
115.195
21
-142.405
0
LINE
8
BLACK
6
CONTINUOUS
10
115.195
20
-142.405
11
112.632
21
-143.238
0
LINE
8
BLACK
6
CONTINUOUS
10
112.632
20
-143.238
11
110.023
21
-143.916
0
LINE
8
BLACK
6
CONTINUOUS
10
110.023
20
-143.916
11
107.379
21
-144.436
0
LINE
8
BLACK
6
CONTINUOUS
10
107.379
20
-144.436
11
104.708
21
-144.798
0
LINE
8
BLACK
6
CONTINUOUS
10
104.708
20
-144.798
11
102.021
21
-145
0
LINE
8
BLACK
6
CONTINUOUS
10
102.021
20
-145
11
99.3262
21
-145.04
0
LINE
8
BLACK
6
CONTINUOUS
10
99.3262
20
-145.04
11
96.6338
21
-144.919
0
LINE
8
BLACK
6
CONTINUOUS
10
96.6338
20
-144.919
11
93.9535
21
-144.637
0
LINE
8
BLACK
6
CONTINUOUS
10
93.9535
20
-144.637
11
91.2948
21
-144.196
0
LINE
8
BLACK
6
CONTINUOUS
10
91.2948
20
-144.196
11
88.6673
21
-143.596
0
LINE
8
BLACK
6
CONTINUOUS
10
88.6673
20
-143.596
11
86.0803
21
-142.84
0
LINE
8
BLACK
6
CONTINUOUS
10
86.0803
20
-142.84
11
83.5432
21
-141.931
0
LINE
8
BLACK
6
CONTINUOUS
10
83.5432
20
-141.931
11
81.065
21
-140.872
0
LINE
8
BLACK
6
CONTINUOUS
10
81.065
20
-140.872
11
78.6546
21
-139.666
0
LINE
8
BLACK
6
CONTINUOUS
10
78.6546
20
-139.666
11
76.3206
21
-138.319
0
LINE
8
BLACK
6
CONTINUOUS
10
76.3206
20
-138.319
11
74.0713
21
-136.834
0
LINE
8
BLACK
6
CONTINUOUS
10
74.0713
20
-136.834
11
71.9149
21
-135.218
0
LINE
8
BLACK
6
CONTINUOUS
10
71.9149
20
-135.218
11
69.859
21
-133.475
0
LINE
8
BLACK
6
CONTINUOUS
10
69.859
20
-133.475
11
67.911
21
-131.612
0
LINE
8
BLACK
6
CONTINUOUS
10
67.911
20
-131.612
11
66.0779
21
-129.637
0
LINE
8
BLACK
6
CONTINUOUS
10
66.0779
20
-129.637
11
64.3662
21
-127.555
0
LINE
8
BLACK
6
CONTINUOUS
10
64.3662
20
-127.555
11
62.7821
21
-125.375
0
LINE
8
BLACK
6
CONTINUOUS
10
62.7821
20
-125.375
11
61.3312
21
-123.104
0
LINE
8
BLACK
6
CONTINUOUS
10
61.3312
20
-123.104
11
60.0187
21
-120.75
0
LINE
8
BLACK
6
CONTINUOUS
10
60.0187
20
-120.75
11
58.8493
21
-118.321
0
LINE
8
BLACK
6
CONTINUOUS
10
58.8493
20
-118.321
11
57.8273
21
-115.828
0
LINE
8
BLACK
6
CONTINUOUS
10
57.8273
20
-115.828
11
56.9562
21
-113.277
0
LINE
8
BLACK
6
CONTINUOUS
10
56.9562
20
-113.277
11
56.2392
21
-110.679
0
LINE
8
BLACK
6
CONTINUOUS
10
56.2392
20
-110.679
11
55.6789
21
-108.043
0
LINE
8
BLACK
6
CONTINUOUS
10
55.6789
20
-108.043
11
55.2772
21
-105.378
0
LINE
8
BLACK
6
CONTINUOUS
10
55.2772
20
-105.378
11
55.0356
21
-102.694
0
LINE
8
BLACK
6
CONTINUOUS
10
55.0356
20
-102.694
11
54.955
21
-100
0
LINE
8
BLACK
6
CONTINUOUS
10
54.955
20
-100
11
55.0356
21
-97.3061
0
LINE
8
BLACK
6
CONTINUOUS
10
55.0356
20
-97.3061
11
55.2772
21
-94.6219
0
LINE
8
BLACK
6
CONTINUOUS
10
55.3467
20
-105.37
11
55.7478
21
-108.031
0
LINE
8
BLACK
6
CONTINUOUS
10
55.7478
20
-108.031
11
56.3072
21
-110.663
0
LINE
8
BLACK
6
CONTINUOUS
10
56.3072
20
-110.663
11
57.0231
21
-113.257
0
LINE
8
BLACK
6
CONTINUOUS
10
57.0231
20
-113.257
11
57.8928
21
-115.803
0
LINE
8
BLACK
6
CONTINUOUS
10
57.8928
20
-115.803
11
58.9133
21
-118.293
0
LINE
8
BLACK
6
CONTINUOUS
10
58.9133
20
-118.293
11
60.0808
21
-120.717
0
LINE
8
BLACK
6
CONTINUOUS
10
60.0808
20
-120.717
11
61.3913
21
-123.068
0
LINE
8
BLACK
6
CONTINUOUS
10
61.3913
20
-123.068
11
62.8399
21
-125.335
0
LINE
8
BLACK
6
CONTINUOUS
10
62.8399
20
-125.335
11
64.4216
21
-127.512
0
LINE
8
BLACK
6
CONTINUOUS
10
64.4216
20
-127.512
11
66.1306
21
-129.591
0
LINE
8
BLACK
6
CONTINUOUS
10
66.1306
20
-129.591
11
67.9609
21
-131.563
0
LINE
8
BLACK
6
CONTINUOUS
10
67.9609
20
-131.563
11
69.9059
21
-133.423
0
LINE
8
BLACK
6
CONTINUOUS
10
69.9059
20
-133.423
11
71.9585
21
-135.163
0
LINE
8
BLACK
6
CONTINUOUS
10
71.9585
20
-135.163
11
74.1116
21
-136.777
0
LINE
8
BLACK
6
CONTINUOUS
10
74.1116
20
-136.777
11
76.3574
21
-138.259
0
LINE
8
BLACK
6
CONTINUOUS
10
76.3574
20
-138.259
11
78.6878
21
-139.605
0
LINE
8
BLACK
6
CONTINUOUS
10
78.6878
20
-139.605
11
81.0944
21
-140.808
0
LINE
8
BLACK
6
CONTINUOUS
10
81.0944
20
-140.808
11
83.5688
21
-141.866
0
LINE
8
BLACK
6
CONTINUOUS
10
83.5688
20
-141.866
11
86.102
21
-142.774
0
LINE
8
BLACK
6
CONTINUOUS
10
86.102
20
-142.774
11
88.6849
21
-143.528
0
LINE
8
BLACK
6
CONTINUOUS
10
88.6849
20
-143.528
11
91.3083
21
-144.127
0
LINE
8
BLACK
6
CONTINUOUS
10
91.3083
20
-144.127
11
93.9629
21
-144.568
0
LINE
8
BLACK
6
CONTINUOUS
10
93.9629
20
-144.568
11
96.639
21
-144.849
0
LINE
8
BLACK
6
CONTINUOUS
10
96.639
20
-144.849
11
99.3272
21
-144.97
0
LINE
8
BLACK
6
CONTINUOUS
10
99.3272
20
-144.97
11
102.018
21
-144.93
0
LINE
8
BLACK
6
CONTINUOUS
10
102.018
20
-144.93
11
104.701
21
-144.729
0
LINE
8
BLACK
6
CONTINUOUS
10
104.701
20
-144.729
11
107.368
21
-144.367
0
LINE
8
BLACK
6
CONTINUOUS
10
107.368
20
-144.367
11
110.008
21
-143.847
0
LINE
8
BLACK
6
CONTINUOUS
10
110.008
20
-143.847
11
112.612
21
-143.17
0
LINE
8
BLACK
6
CONTINUOUS
10
112.612
20
-143.17
11
115.171
21
-142.339
0
LINE
8
BLACK
6
CONTINUOUS
10
115.171
20
-142.339
11
117.676
21
-141.356
0
LINE
8
BLACK
6
CONTINUOUS
10
117.676
20
-141.356
11
120.118
21
-140.225
0
LINE
8
BLACK
6
CONTINUOUS
10
120.118
20
-140.225
11
122.487
21
-138.949
0
LINE
8
BLACK
6
CONTINUOUS
10
122.487
20
-138.949
11
124.777
21
-137.535
0
LINE
8
BLACK
6
CONTINUOUS
10
124.777
20
-137.535
11
126.977
21
-135.986
0
LINE
8
BLACK
6
CONTINUOUS
10
126.977
20
-135.986
11
129.081
21
-134.308
0
LINE
8
BLACK
6
CONTINUOUS
10
129.081
20
-134.308
11
131.081
21
-132.508
0
LINE
8
BLACK
6
CONTINUOUS
10
131.081
20
-132.508
11
132.969
21
-130.591
0
LINE
8
BLACK
6
CONTINUOUS
10
132.969
20
-130.591
11
134.739
21
-128.564
0
LINE
8
BLACK
6
CONTINUOUS
10
134.739
20
-128.564
11
136.386
21
-126.436
0
LINE
8
BLACK
6
CONTINUOUS
10
136.386
20
-126.436
11
137.901
21
-124.212
0
LINE
8
BLACK
6
CONTINUOUS
10
137.901
20
-124.212
11
139.282
21
-121.902
0
LINE
8
BLACK
6
CONTINUOUS
10
139.282
20
-121.902
11
140.521
21
-119.514
0
LINE
8
BLACK
6
CONTINUOUS
10
140.521
20
-119.514
11
141.616
21
-117.056
0
LINE
8
BLACK
6
CONTINUOUS
10
141.616
20
-117.056
11
142.561
21
-114.536
0
LINE
8
BLACK
6
CONTINUOUS
10
142.561
20
-114.536
11
143.354
21
-111.965
0
LINE
8
BLACK
6
CONTINUOUS
10
143.354
20
-111.965
11
143.992
21
-109.351
0
LINE
8
BLACK
6
CONTINUOUS
10
143.992
20
-109.351
11
144.473
21
-106.703
0
LINE
8
BLACK
6
CONTINUOUS
10
144.473
20
-106.703
11
144.794
21
-104.032
0
LINE
8
BLACK
6
CONTINUOUS
10
144.794
20
-104.032
11
144.955
21
-101.345
0
LINE
8
BLACK
6
CONTINUOUS
10
144.955
20
-101.345
11
144.955
21
-98.6546
0
LINE
8
BLACK
6
CONTINUOUS
10
144.955
20
-98.6546
11
144.794
21
-95.9685
0
LINE
8
BLACK
6
CONTINUOUS
10
144.794
20
-95.9685
11
144.473
21
-93.2968
0
LINE
8
BLACK
6
CONTINUOUS
10
144.473
20
-93.2968
11
143.992
21
-90.6492
0
LINE
8
BLACK
6
CONTINUOUS
10
143.992
20
-90.6492
11
143.354
21
-88.035
0
LINE
8
BLACK
6
CONTINUOUS
10
143.354
20
-88.035
11
142.561
21
-85.4636
0
LINE
8
BLACK
6
CONTINUOUS
10
142.561
20
-85.4636
11
141.616
21
-82.9443
0
LINE
8
BLACK
6
CONTINUOUS
10
141.616
20
-82.9443
11
140.521
21
-80.4861
0
LINE
8
BLACK
6
CONTINUOUS
10
140.521
20
-80.4861
11
139.282
21
-78.0977
0
LINE
8
BLACK
6
CONTINUOUS
10
139.282
20
-78.0977
11
137.901
21
-75.7877
0
LINE
8
BLACK
6
CONTINUOUS
10
137.901
20
-75.7877
11
136.386
21
-73.5644
0
LINE
8
BLACK
6
CONTINUOUS
10
136.386
20
-73.5644
11
134.739
21
-71.4357
0
LINE
8
BLACK
6
CONTINUOUS
10
134.739
20
-71.4357
11
132.969
21
-69.4092
0
LINE
8
BLACK
6
CONTINUOUS
10
132.969
20
-69.4092
11
131.081
21
-67.4923
0
LINE
8
BLACK
6
CONTINUOUS
10
131.081
20
-67.4923
11
129.081
21
-65.6917
0
LINE
8
BLACK
6
CONTINUOUS
10
129.081
20
-65.6917
11
126.977
21
-64.014
0
LINE
8
BLACK
6
CONTINUOUS
10
126.977
20
-64.014
11
124.777
21
-62.4651
0
LINE
8
BLACK
6
CONTINUOUS
10
124.777
20
-62.4651
11
122.487
21
-61.0505
0
LINE
8
BLACK
6
CONTINUOUS
10
122.487
20
-61.0505
11
120.118
21
-59.7754
0
LINE
8
BLACK
6
CONTINUOUS
10
120.118
20
-59.7754
11
117.676
21
-58.6442
0
LINE
8
BLACK
6
CONTINUOUS
10
117.676
20
-58.6442
11
115.171
21
-57.6611
0
LINE
8
BLACK
6
CONTINUOUS
10
115.171
20
-57.6611
11
112.612
21
-56.8296
0
LINE
8
BLACK
6
CONTINUOUS
10
112.612
20
-56.8296
11
110.008
21
-56.1526
0
LINE
8
BLACK
6
CONTINUOUS
10
110.008
20
-56.1526
11
107.368
21
-55.6326
0
LINE
8
BLACK
6
CONTINUOUS
10
107.368
20
-55.6326
11
104.701
21
-55.2714
0
LINE
8
BLACK
6
CONTINUOUS
10
104.701
20
-55.2714
11
102.018
21
-55.0703
0
LINE
8
BLACK
6
CONTINUOUS
10
102.018
20
-55.0703
11
99.3272
21
-55.03
0
LINE
8
BLACK
6
CONTINUOUS
10
99.3272
20
-55.03
11
96.639
21
-55.1508
0
LINE
8
BLACK
6
CONTINUOUS
10
96.639
20
-55.1508
11
93.9629
21
-55.432
0
LINE
8
BLACK
6
CONTINUOUS
10
93.9629
20
-55.432
11
91.3083
21
-55.8729
0
LINE
8
BLACK
6
CONTINUOUS
10
91.3083
20
-55.8729
11
88.6849
21
-56.4716
0
LINE
8
BLACK
6
CONTINUOUS
10
88.6849
20
-56.4716
11
86.102
21
-57.2262
0
LINE
8
BLACK
6
CONTINUOUS
10
86.102
20
-57.2262
11
83.5688
21
-58.134
0
LINE
8
BLACK
6
CONTINUOUS
10
83.5688
20
-58.134
11
81.0944
21
-59.1915
0
LINE
8
BLACK
6
CONTINUOUS
10
81.0944
20
-59.1915
11
78.6878
21
-60.3952
0
LINE
8
BLACK
6
CONTINUOUS
10
78.6878
20
-60.3952
11
76.3574
21
-61.7407
0
LINE
8
BLACK
6
CONTINUOUS
10
76.3574
20
-61.7407
11
74.1116
21
-63.2231
0
LINE
8
BLACK
6
CONTINUOUS
10
74.1116
20
-63.2231
11
71.9585
21
-64.8371
0
LINE
8
BLACK
6
CONTINUOUS
10
71.9585
20
-64.8371
11
69.9059
21
-66.5771
0
LINE
8
BLACK
6
CONTINUOUS
10
69.9059
20
-66.5771
11
67.9609
21
-68.4366
0
LINE
8
BLACK
6
CONTINUOUS
10
67.9609
20
-68.4366
11
66.1306
21
-70.4092
0
LINE
8
BLACK
6
CONTINUOUS
10
66.1306
20
-70.4092
11
64.4216
21
-72.4877
0
LINE
8
BLACK
6
CONTINUOUS
10
64.4216
20
-72.4877
11
62.8399
21
-74.6647
0
LINE
8
BLACK
6
CONTINUOUS
10
62.8399
20
-74.6647
11
61.3913
21
-76.9324
0
LINE
8
BLACK
6
CONTINUOUS
10
61.3913
20
-76.9324
11
60.0808
21
-79.2826
0
LINE
8
BLACK
6
CONTINUOUS
10
60.0808
20
-79.2826
11
58.9133
21
-81.707
0
LINE
8
BLACK
6
CONTINUOUS
10
58.9133
20
-81.707
11
57.8928
21
-84.1969
0
LINE
8
BLACK
6
CONTINUOUS
10
57.8928
20
-84.1969
11
57.0231
21
-86.7434
0
LINE
8
BLACK
6
CONTINUOUS
10
57.0231
20
-86.7434
11
56.3072
21
-89.3373
0
LINE
8
BLACK
6
CONTINUOUS
10
56.3072
20
-89.3373
11
55.7478
21
-91.9694
0
LINE
8
BLACK
6
CONTINUOUS
10
55.7478
20
-91.9694
11
55.3467
21
-94.6302
0
LINE
8
BLACK
6
CONTINUOUS
10
55.3467
20
-94.6302
11
55.1055
21
-97.3103
0
LINE
8
BLACK
6
CONTINUOUS
10
55.1055
20
-97.3103
11
55.025
21
-100
0
LINE
8
BLACK
6
CONTINUOUS
10
55.025
20
-100
11
55.1055
21
-102.69
0
LINE
8
BLACK
6
CONTINUOUS
10
55.1055
20
-102.69
11
55.3467
21
-105.37
  0
ENDSEC
  0
EOF
